<svg width="512.001" height="512.001" xmlns="http://www.w3.org/2000/svg">

 <g>
  <title>background</title>
  <rect fill="#add5e6" id="canvas_background" height="514.001" width="514.001" y="-1" x="-1"/>
 </g>
 <g>
  <title>Layer 1</title>
  <g id="svg_1">
   <path id="svg_2" fill="#00BCE9" d="m25.946,192.445c-10.573,11.462 -13.556,28.163 -8.426,43.225c5.519,16.202 20.921,23.458 36.494,23.452c13.587,-0.006 30.041,-4.714 37.05,-17.556c9.265,-16.974 5.207,-40.463 -8.435,-53.487c-15.47,-14.769 -47.613,-15.836 -56.683,4.366z"/>
   <path id="svg_3" fill="#00BCE9" d="m48.962,75.121c-7.67,17.587 9.543,37.667 26.945,28.783c8.521,-4.351 12.049,-14.942 11.256,-24.29c-0.885,-10.424 -5.762,-16.115 -16.309,-16.282c-12.65,-0.198 -18.164,6.032 -21.892,11.789z"/>
   <path id="svg_4" fill="#00BCE9" d="m439.667,122.837c-21.539,15.387 -17.082,49.785 4.928,61.329c13.227,6.937 31.067,9.234 40.541,-4.96c7.982,-11.96 10.033,-28.621 2.398,-41.199c-4.539,-7.478 -11.707,-14.675 -20.128,-17.421c-12.318,-4.017 -20.223,-1.639 -27.739,2.251z"/>
  </g>
  <path id="svg_5" fill="#F05161" d="m175.829,42.563c-34.987,34.285 -40.768,93.612 -33.822,139.746c3.535,23.478 10.104,46.331 14.737,69.673c2.605,13.123 5.066,27.152 -0.673,39.263c-7.668,16.185 -18.094,20.921 -35.176,20.209c-10.157,-0.423 -18.905,-0.1 -23.656,9.98c-4.938,10.476 -1.527,17.13 -0.69,27.629c0.643,8.081 -6.166,13.76 -8.169,21.293c-3.237,12.173 -0.45,21.106 10.104,27.592c3.612,2.22 9.306,3.743 9.427,8.967c0.118,5.081 -5.978,10.083 -9.101,13.585c-8.59,9.633 -15.389,21.956 -11.83,35.225c6.36,23.72 31.637,33.996 54.042,28.701c24.419,-5.77 47.255,-31.013 56.703,-53.122c2.805,-6.562 4.354,-17.096 10.095,-21.705c6.081,4.361 4.444,18.597 5.757,25.51c1.991,10.477 4.849,20.478 8.154,30.578c6.064,18.528 15.797,32.966 35.07,39.434c17.207,5.774 31.561,-3.35 39.125,-18.359c8.104,-16.08 3.382,-35.715 0.747,-52.648c-3.604,-23.153 -16.965,-45.919 -15.749,-69.63c0.586,-11.414 9.926,-42.416 26.246,-27.767c6.431,5.772 8.565,19.798 10.677,28.054c3.392,13.26 3.354,27.086 5.179,40.582c3.212,23.756 4.913,50.548 25.137,66.537c22.586,17.857 46.698,5.692 53.496,-20.656c7.019,-27.21 -5.069,-49.675 -18.831,-72.276c-7.376,-12.114 -28.968,-38.094 -10.651,-49.553c6.514,-4.075 16.069,-3.233 22.484,1.108c9.083,6.149 9.921,18.671 13.287,28.169c6.475,18.269 13.173,49.714 36.908,51.598c30.73,2.44 41.741,-34.403 40.303,-58.871c-0.339,-5.775 -1.7,-12.16 -3.7,-17.522c-1.678,-4.495 -6.527,-8.362 -4.64,-13.465c1.418,-3.833 6.842,-7.325 9.043,-11.08c4.169,-7.11 7.33,-16.434 7.608,-24.748c0.381,-11.403 -5.392,-26.602 -18.29,-27.057c-15.683,-0.553 -30.804,4.613 -46.793,3.334c-35.551,-2.845 -35.321,-41.055 -34.18,-68.41c1.47,-35.244 10.922,-73.173 4.63,-108.257c-5.563,-31.022 -29.439,-64.964 -61.465,-72.569c-18.979,-4.507 -40.321,-6.126 -59.773,-6.121c-18.62,0.004 -38.919,0.587 -56.304,8.094c-16.701,7.212 -33.245,18.525 -45.466,28.955z"/>
  <path id="svg_6" fill="#FFFFFF" d="m262.839,131.257c-6.341,-0.576 -13.151,3.044 -14.034,9.543c-1.516,11.152 9.826,9.283 17.293,8.953c6.525,-0.289 12.616,-1.455 19.055,-2.341c3.656,-0.503 9.932,-0.497 12.504,-3.368c4.897,-5.463 1.704,-16.255 -5.081,-17.277c-5.161,-0.778 -11.219,1.465 -16.261,2.23c-5.817,0.88 -11.222,0.74 -13.476,2.26z"/>
  <path id="svg_7" fill="#EF9BB7" d="m275.47,152.308c-3.389,0.55 -6.636,1.731 -9.823,2.985c-1.837,0.723 -4.269,1.341 -5.586,2.909c-2.707,3.222 -0.214,6.552 2.704,8.297c5.49,3.282 13.908,2.531 19.939,1.462c5.619,-0.996 11.677,-4.719 12.598,-10.845c1.286,-8.56 -15.435,-5.895 -19.832,-4.808z"/>
  <g id="svg_8">
   <path id="svg_9" fill="#7C2B42" d="m394.898,148.659c-4.941,-1.251 -11.069,2.344 -14.701,5.298c-6.379,5.188 -11.811,10.924 -14.633,18.771c-3.126,8.69 -2.345,21.572 4.342,28.481c3.144,3.248 6.612,5.473 10.818,7.126c3.163,1.242 7.601,4.016 9.477,-0.365c2.427,-5.669 2.084,-12.684 2.723,-18.695c0.463,-4.356 1.576,-8.616 2.216,-12.946c0.582,-3.935 0.861,-7.795 1.056,-11.763c0.173,-3.515 1.75,-14.235 -1.298,-15.907z"/>
   <path id="svg_10" fill="#7C2B42" d="m371.626,36.17c-1.321,0.175 -2.648,0.708 -3.898,1.507c-1.703,1.088 -3.178,2.504 -4.505,4.018c-2.723,3.104 -4.803,6.687 -7.056,10.127c-2.179,3.327 -5.017,7.267 -5.754,11.196c-0.89,4.75 1.764,7.569 4.666,11.023c2.682,3.193 6.774,5.804 8.814,9.502c2.865,5.195 0.004,11.366 -1.278,16.497c-1.899,7.6 -1.702,15.859 2.26,22.664c3.874,6.657 10.897,8.549 18.187,8.553c4.454,0.002 9.646,0.113 13.485,-2.518c2.428,-1.665 3.218,-5.207 3.777,-7.944c1.686,-8.254 0.694,-17.849 -0.632,-26.065c-1.62,-10.031 -4.687,-20.082 -8.452,-29.504c-2.671,-6.687 -4.98,-13.695 -8.519,-19.993c-1.571,-2.796 -3.571,-5.614 -6.073,-7.65c-1.531,-1.247 -3.27,-1.646 -5.022,-1.413z"/>
   <path id="svg_11" fill="#7C2B42" d="m188.21,36.792c-0.85,1.241 -1.649,2.516 -2.546,3.764c-1.259,1.75 -2.435,3.705 -3.386,5.655c-1.644,3.373 -3.26,6.768 -4.765,10.248c-2.863,6.621 -3.233,16.379 0.975,22.599c4.278,6.321 12.893,9.164 20.177,7.469c2.144,-0.498 4.217,-1.126 6.285,-1.864c2.866,-1.024 5.193,-2.966 7.788,-4.493c5.17,-3.041 10.417,-6.094 15.661,-8.999c8.831,-4.892 21.747,-9.381 30.163,-1.524c3.402,3.176 6.419,6.672 9.678,9.961c3.303,3.331 7.228,5.582 11.672,7.02c12.168,3.936 24.903,-4.041 34.912,-9.964c4.876,-2.885 10.042,-7.153 13.702,-11.508c2.383,-2.836 4.104,-6.496 3.638,-10.246c-0.613,-4.934 -3.318,-9.388 -4.703,-14.127c-1.722,-5.892 -2.659,-12.076 -1.888,-18.201c0.289,-2.293 0.981,-4.357 1.685,-6.541c0.579,-1.796 1.16,-3.603 -0.658,-4.862c-1.667,-1.155 -4.719,-1.332 -6.636,-1.607c-3.586,-0.514 -7.212,-0.701 -10.82,-1.004c-8.708,-0.731 -17.42,-1.36 -26.148,-1.8c-16.662,-0.842 -34.385,-1.33 -50.623,3.105c-12.124,3.312 -23.457,9.768 -33.634,17.023c-2.763,1.969 -5.514,4.078 -7.868,6.532c-1.014,1.056 -1.86,2.194 -2.661,3.364z"/>
   <path id="svg_12" fill="#7C2B42" d="m146.217,96.313c-0.125,3.107 -1.46,6.607 -2.102,9.646c-1.326,6.275 -2.576,12.525 -3.301,18.901c-0.631,5.539 -1.491,11.079 -1.723,16.649c-0.202,4.849 0.038,9.716 0.109,14.561c0.068,4.632 0.882,9.267 1.228,13.89c0.33,4.419 0.808,8.719 1.509,13.094c1.289,8.062 3.5,16.179 5.505,24.093c1.394,5.505 2.545,11.491 5.032,16.617c1.36,2.802 2.552,3.77 5.706,2.748c5.471,-1.774 11.754,-5.279 15.408,-9.79c5.049,-6.231 5.865,-14.504 6.174,-22.215c0.348,-8.69 -1.644,-16.503 -6.156,-23.85c-4.769,-7.768 -10.177,-15.334 -7.725,-24.97c1.191,-4.682 3.313,-9.585 5.763,-13.721c2.534,-4.278 4.879,-8.496 5.875,-13.441c1.591,-7.905 -5.315,-16.161 -12.417,-18.776c-4.999,-1.841 -10.07,-2.571 -15.306,-3.016c-1.627,-0.137 -1.962,0.068 -3.579,-0.42z"/>
   <path id="svg_13" fill="#7C2B42" d="m111.974,311.453c-0.118,1.551 -1.183,3.11 -1.722,4.554c-0.596,1.598 -1.061,3.294 -1.474,4.959c-0.969,3.907 -1.625,7.494 2.498,9.321c3.583,1.588 7.375,2.227 10.912,-0.094c4.462,-2.929 8.024,-7.933 9.16,-13.202c0.924,-4.284 -1.928,-5.579 -5.682,-6.483c-4.7,-1.134 -10.313,-1.449 -13.692,0.945z"/>
   <path id="svg_14" fill="#7C2B42" d="m128.561,337.878c-3.658,1.84 -7.391,3.231 -9.8,6.694c-2.162,3.109 -3.284,6.824 -4.541,10.355c-1.384,3.889 -4.4,7.743 -4.07,12.071c0.642,8.405 10.494,4.278 14.82,1.466c3.48,-2.261 7.409,-2.876 11.462,-3.437c5.3,-0.733 10.018,-2.691 14.39,-5.852c9.368,-6.771 13.584,-18.658 10.699,-29.842c-0.62,-2.401 -1.852,-5.457 -3.594,-7.283c-2.991,-3.135 -8.095,1.444 -10.721,3.219c-6.254,4.227 -11.868,9.199 -18.645,12.609z"/>
   <path id="svg_15" fill="#7C2B42" d="m187.196,342.749c-2.172,5.526 -5.104,10.739 -8.216,15.782c-1.344,2.178 -3.09,4.475 -3.857,6.945c-0.949,3.057 1.559,6.361 3.442,8.736c1.2,1.515 2.861,2.444 4.764,2.921c2.806,0.704 4.665,-0.192 6.927,-1.936c5.491,-4.234 8.256,-13.626 7.889,-20.36c-0.183,-3.352 -1.403,-6.4 -3.873,-8.662c-1.122,-1.027 -2.408,-1.885 -3.709,-2.657c-1.589,-0.941 -1.913,-0.78 -3.367,-0.769z"/>
   <path id="svg_16" fill="#7C2B42" d="m221.439,298.401c-4.001,2.516 -6.918,7.135 -7.965,11.644c-0.815,3.515 -1.1,7.593 2.46,9.723c5.098,3.049 11.649,0.514 15.326,-3.392c3.404,-3.616 6.22,-10.875 3.597,-15.593c-2.579,-4.644 -9.459,-4.901 -13.418,-2.382z"/>
   <path id="svg_17" fill="#7C2B42" d="m248.945,338.398c-2.665,2.746 -5.18,6.415 -7.239,9.614c-1.898,2.948 -3.942,5.783 -5.53,8.911c-1.572,3.093 -2.424,6.539 -2,10.01c0.433,3.544 1.955,5.125 5.289,6.273c2.583,0.889 6.155,1.273 8.829,0.522c4.148,-1.167 7.385,-5.144 9.664,-8.58c4.172,-6.288 8.454,-14.813 6.53,-22.582c-0.859,-3.468 -2.588,-6.838 -6.561,-7.126c-2.936,-0.212 -6.851,1.145 -8.982,2.958z"/>
   <path id="svg_18" fill="#7C2B42" d="m267.891,302.471c-3.873,3.667 -7.064,9.267 -5.087,14.876c1.556,4.417 7.692,4.874 11.782,4.775c5.556,-0.135 12.939,-3.813 16.465,-8.081c3.142,-3.805 2.444,-11.566 -2.318,-13.853c-2.933,-1.408 -6.518,-1.623 -9.714,-1.506c-1.993,0.073 -3.833,0.403 -5.719,1.036c-2.484,0.836 -4.176,2.621 -5.409,2.753z"/>
   <path id="svg_19" fill="#7C2B42" d="m241.226,401.58c-3.461,3.205 -4.824,8.616 -5.714,13.257c-0.988,5.157 -0.909,10.461 -0.003,15.624c1.452,8.271 8.626,13.752 9.539,22.1c0.556,5.075 0.268,10.534 1.934,15.441c1.594,4.696 7.563,7.261 11.858,4.567c6.536,-4.098 7.968,-13.9 8.63,-20.96c1.127,-12.005 -1.178,-23.546 -3.535,-35.28c-0.666,-3.317 -1.079,-6.261 -2.915,-9.15c-3.082,-4.85 -8.902,-9.505 -15.081,-8.085c-1.904,0.438 -3.449,1.315 -4.713,2.486z"/>
   <path id="svg_20" fill="#7C2B42" d="m123.342,407.866c-4.62,6.013 -10.753,12.594 -12.419,20.209c-1.024,4.681 1.15,10.137 6.584,10.244c5.513,0.109 10.541,-4.007 16.045,-2.666c4.732,1.152 6.432,4.974 10.222,7.302c5.243,3.222 10.894,1.266 15.418,-2.137c3.006,-2.26 5.015,-5.187 7.201,-8.19c2.781,-3.821 5.22,-7.585 6.688,-12.119c2.353,-7.27 2.762,-14.601 1.484,-22.097c-0.829,-4.859 -3.378,-11.146 -7.995,-13.569c-1.572,-0.824 -3.377,-1.481 -5.067,-2.016c-3.11,-0.986 -6.526,1.181 -9.054,2.873c-7.892,5.286 -15.142,11.52 -22.775,17.166c-2.251,1.665 -4.989,3.396 -6.332,5z"/>
   <path id="svg_21" fill="#7C2B42" d="m360.515,412.217c-5.038,3.627 -10.426,6.833 -11.511,13.473c-0.594,3.632 1.14,7.189 2.982,10.241c2.099,3.477 4.026,6.781 6.799,9.765c2.363,2.543 4.48,4.296 8.062,4.269c4.77,-0.037 9.152,-3.204 12.223,-6.694c3.811,-4.328 4.721,-9.624 5.618,-15.17c0.784,-4.841 0.342,-10.386 -0.839,-15.14c-0.893,-3.597 -3.09,-8.245 -7.302,-8.432c-2.606,-0.116 -5.114,1.551 -7.258,2.84c-3.304,1.992 -6.705,3.779 -8.774,4.848z"/>
   <path id="svg_22" fill="#7C2B42" d="m340.026,345.696c-3.309,3.323 -4.494,7.383 -4.631,12.038c-0.126,4.247 -0.514,8.428 -0.71,12.627c-0.192,4.155 -0.271,8.561 1.028,12.574c1.12,3.459 3.675,6.175 5.886,8.964c1.788,2.254 4.005,5.698 7.126,5.719c3.401,0.022 7.464,-2.586 8.802,-5.65c1.178,-2.697 1.216,-5.418 1.052,-8.334c-0.182,-3.244 -0.239,-6.521 -0.579,-9.751c-0.344,-3.27 -1.543,-6.687 -2.847,-9.698c-2.018,-4.654 -4.21,-9.806 -7.204,-13.967c-1.048,-1.456 -2.238,-3.171 -3.745,-4.136c-2.182,-1.398 -3.211,-0.921 -4.178,-0.386z"/>
   <path id="svg_23" fill="#7C2B42" d="m331.325,301.489c-2.652,1.719 -5.005,2.874 -6.877,5.579c-3.025,4.368 -1.922,10.64 0.14,15.177c1.098,2.416 2.16,3.927 4.697,4.926c2.506,0.988 5.61,1.15 8.124,0.136c5.688,-2.294 5.654,-11.155 5.177,-16.21c-0.313,-3.314 -1.23,-6.518 -4.108,-8.489c-2.025,-1.387 -4.655,-1.967 -7.153,-1.119z"/>
   <path id="svg_24" fill="#7C2B42" d="m382.268,280.438c-2.798,1.307 -13.551,13.903 -6.42,15.69c2.821,0.706 6.777,-1.547 9.375,-2.505c2.412,-0.889 4.886,-0.549 7.256,0.39c4.706,1.865 7.323,6.04 12.582,2.845c2.692,-1.636 4.4,-3.132 4.825,-6.542c0.387,-3.11 -1.51,-6.032 -3.871,-7.881c-3.15,-2.467 -7.791,-3.486 -11.711,-3.789c-2.22,-0.172 -4.55,-0.052 -6.723,0.39c-2.276,0.461 -3.934,1.715 -5.313,1.402z"/>
   <path id="svg_25" fill="#7C2B42" d="m440.649,296.577c-2.554,1.17 -5.334,1.538 -7.719,3.228c-2.943,2.084 -6.568,4.23 -9.206,6.705c-2.675,2.509 -3.698,6.142 -1.742,9.356c1.808,2.971 4.759,5.004 6.708,7.875c2.764,4.071 3.743,9.182 4.242,14.026c0.589,5.727 2.104,9.846 5.855,14.206c3.13,3.638 6.368,5.445 11.228,5.231c5.653,-0.249 10.176,-4.236 14.023,-8.023c3.613,-3.557 7.341,-7.637 9.877,-12.076c2.986,-5.232 0.667,-10.75 -2.166,-15.525c-2.43,-4.098 -5.547,-7.672 -8.805,-11.122c-3.025,-3.203 -5.879,-6.396 -9.774,-8.597c-3.589,-2.026 -8.623,-5.598 -12.521,-5.284z"/>
   <path id="svg_26" fill="#7C2B42" d="m482.19,357.344c-9.226,0.589 -20.286,5.177 -22.521,15.185c-1.162,5.206 -3.219,12.087 -0.145,17.032c1.529,2.461 3.311,4.774 5.506,6.694c3.936,3.442 7.749,-0.478 10.163,-3.97c2.84,-4.11 4.952,-8.942 6.851,-13.55c1.517,-3.681 2.664,-7.741 2.819,-11.741c0.13,-3.365 -0.555,-7.327 -2.673,-9.65z"/>
   <path id="svg_27" fill="#7C2B42" d="m437.562,264.439c-0.495,3.351 -1.201,6.815 -0.245,10.217c0.628,2.234 3.404,3.452 5.437,4.151c4.45,1.53 8.977,2.062 13.121,4.298c4.453,2.402 10.128,4.308 14.825,1.536c3.116,-1.839 6.016,-4.481 7.546,-7.817c1.067,-2.326 1.593,-4.803 2.117,-7.291c0.427,-2.029 1.199,-4.2 1.131,-6.3c-0.192,-5.953 -14.088,-4.934 -17.76,-4.688c-5.456,0.365 -10.694,1.433 -16.063,2.39c-1.924,0.344 -3.853,0.703 -5.734,1.225c-2.135,0.592 -2.692,1.651 -4.375,2.279z"/>
  </g>
  <g id="svg_28">
   <path id="svg_29" fill="#FFFFFF" d="m79.771,207.573c-1.341,-6.477 -6.938,-12.981 -14.26,-11.313c-3.976,0.906 -7.625,4.351 -8.311,8.439c-0.426,2.534 0.419,4.325 1.7,6.438c2.669,4.409 4.339,7.825 3.44,13.092c-0.917,5.38 -3.74,11.667 0.536,16.44c2.917,3.256 7.27,3.393 10.496,0.642c4.623,-3.94 6.572,-9.374 7.421,-15.206c0.421,-2.891 1.226,-5.657 0.925,-8.581c-0.339,-3.289 -1.277,-6.709 -1.947,-9.951z"/>
   <path id="svg_30" fill="#FFFFFF" d="m482.72,144.6c-0.992,-2.563 -3.218,-5.211 -4.764,-7.532c-1.602,-2.407 -3.952,-4.769 -6.55,-6.099c-7.995,-4.087 -27.586,-0.015 -27.96,11.39c-0.161,4.942 4.042,6.751 8.226,7.213c3.561,0.394 6.673,0.18 9.403,2.984c2.562,2.632 3.157,6.497 5.697,9.033c4.115,4.11 9.322,0.632 12.647,-2.737c3.379,-3.421 5.108,-9.584 3.301,-14.252z"/>
   <path id="svg_31" fill="#FFFFFF" d="m66.619,79.356c3.767,3.239 -3.461,10.612 3.111,12.885c5.745,1.988 9.301,-6.759 9.073,-11.058c-0.285,-5.367 -3.511,-13.173 -10.245,-9.932c-0.143,0.068 -0.241,0.196 -0.303,0.344c-1.676,0.642 -3.342,1.806 -3.958,3.414c-1.021,2.674 0.704,2.956 2.322,4.347z"/>
  </g>
  <path id="svg_32" d="m95.165,241.923c2.494,-4.968 2.798,-9.901 3.553,-15.304c0.845,-6.032 0.111,-11.476 -1.605,-17.19c-1.311,-4.364 -2.472,-9.189 -5.126,-13.009c-1.259,-1.811 -2.882,-3.113 -4.119,-4.961c-1.439,-2.152 -3.223,-3.835 -5.1,-5.625c-3.773,-3.598 -7.866,-6.997 -12.732,-9.001c-5.462,-2.25 -11.886,-2.105 -17.684,-1.503c-6.114,0.634 -12.455,2.422 -17.721,5.639c-2.661,1.626 -4.096,4.106 -6.449,6.051c-2.395,1.98 -4.285,3.848 -6.258,6.303c-2.437,3.035 -4.019,5.918 -5.237,9.045c-0.318,0.62 -0.614,1.238 -0.885,1.851c-2.028,4.582 -3.132,9.644 -3.724,14.601c-0.684,5.736 1.013,11.47 2.434,17.014c2.633,10.265 12.005,18.662 21.162,23.154c10.415,5.109 22.945,4.271 33.981,1.985c5.235,-1.085 11.483,-2.515 15.867,-5.777c4.061,-3.025 7.406,-8.816 9.643,-13.273zm-21.986,11.865c-9.823,2.989 -19.838,3.66 -29.936,1.874c-9.02,-1.595 -18.29,-9.678 -22.516,-17.615c-1.361,-2.556 -1.692,-5.389 -2.317,-8.172c-0.612,-2.723 -1.712,-5.281 -1.693,-8.11c0.011,-1.668 0.175,-3.432 0.445,-5.213c0.408,-1.095 0.854,-2.183 1.251,-3.339c1.829,-5.343 2.734,-10.353 6.357,-14.893c2.389,-2.993 4.907,-5.218 7.817,-7.623c1.683,-1.391 2.714,-2.834 4.315,-4.049c0.354,-0.226 0.701,-0.463 1.046,-0.698c0.122,-0.072 0.234,-0.148 0.364,-0.219c2.573,-1.381 5.17,-2.349 8.032,-2.949c10.195,-2.141 20.002,-2.595 28.464,4.349c3.377,2.772 6.247,5.699 8.552,9.35c0.899,1.426 2.134,1.919 3.199,3.111c0.982,1.101 1.647,3.063 2.222,4.408c1.618,3.788 3.501,8.88 3.91,12.999c0.5,5.011 -0.726,9.8 -1.107,14.727c-0.42,5.442 -3.054,9.44 -6.048,13.93c-3.157,4.734 -6.923,6.478 -12.357,8.132z"/>
  <path id="svg_33" d="m423.52,162.342c0.68,3.211 1.528,6.361 3.441,8.722c0.451,1.046 0.934,2.077 1.451,3.084c8.772,17.119 33.927,24.326 50.435,14.156c17.593,-10.839 21.488,-35.126 11.529,-52.522c-4.979,-8.697 -11.828,-15.858 -21.789,-18.725c-9.923,-2.855 -21.311,-1.539 -30.39,3.451c-9.484,5.214 -14.138,16.526 -15.084,26.726c-0.244,2.631 -1.3,4.701 -1.059,7.453c0.224,2.558 0.935,5.148 1.466,7.655zm4.637,-12.474c0.194,-0.951 0.182,-1.921 0.211,-2.887c0.049,-0.201 0.088,-0.405 0.141,-0.604c0.475,-1.728 1.467,-3.086 2.179,-4.699c0.758,-1.718 1.065,-3.585 1.755,-5.328c1.663,-4.206 4.984,-7.301 8.159,-10.41c13.302,-8.178 34.44,-4.159 42.244,9.487c4.109,7.184 7.149,14.117 6.641,22.609c-0.55,9.186 -3.78,17.037 -10.929,22.909c-12.989,10.669 -34.627,6.293 -44.122,-6.931c-4.219,-5.875 -6.974,-13.882 -6.796,-21.438c0.122,-0.816 0.304,-1.668 0.517,-2.708z"/>
  <path id="svg_34" d="m45.925,92.095c2.766,6.73 8.271,12.626 14.288,14.95c6.197,2.394 12.157,0.933 17.983,-1.774c6.039,-2.807 8.945,-7.841 11.228,-13.898c1.233,-3.27 0.749,-6.936 0.667,-10.347c-0.067,-2.827 -0.174,-5.464 -1.48,-8.036c-1.283,-2.531 -3.032,-5.371 -4.813,-7.579c-2.029,-2.517 -4.18,-3.046 -7.066,-4.125c-6.158,-2.303 -13.244,-2.785 -19.362,0.413c-5.46,2.853 -9.11,8.692 -11.693,14.069c-2.424,5.04 -1.963,10.949 0.248,16.327zm4.63,-9.565c1.036,-6.296 5.301,-12.388 11.208,-15.894c5.337,-3.168 14.766,-1.536 18.479,3.78c1.328,1.901 3.181,4.468 3.771,6.733c0.706,2.707 0.448,6.196 0.351,8.975c-0.108,3.084 -1.79,5.231 -2.895,7.999c-1.412,3.537 -3.777,5.056 -7.19,6.531c-6.696,2.894 -11.625,2.147 -17.363,-2.247c-5.579,-4.27 -7.302,-10.158 -6.361,-15.877z"/>
  <path id="svg_35" d="m490.849,311.078c4.401,-6.46 7.92,-13.61 8.904,-21.438c1.732,-13.769 -3.382,-27.906 -16.206,-34.552c-14.474,-7.5 -29.751,2.353 -44.713,2.873c-8.152,0.283 -16.379,-2.836 -23.506,-6.524c-3.529,-1.827 -6.609,-4.108 -9.329,-7.015c-1.095,-1.17 -2.197,-2.41 -3.202,-3.689c-1.171,-3.129 -2.119,-6.276 -2.769,-9.378c-0.661,-3.162 -1.401,-6.202 -2.202,-9.326c-0.457,-1.782 -0.369,-3.457 -0.479,-5.27c-0.128,-2.115 -0.964,-4.069 -0.854,-6.165c0.19,-3.634 1.117,-6.944 1.03,-10.678c-0.107,-4.585 0.548,-8.316 1.534,-12.788c1.379,-6.261 0.811,-12.888 1.894,-19.191c1.236,-7.19 1.847,-14.417 2.652,-21.684c0.36,-3.253 1.297,-6.269 1.382,-9.566c0.113,-4.328 0.246,-8.333 0.866,-12.622c1.085,-7.509 0.543,-15.057 -0.359,-22.555c-0.437,-3.629 -0.404,-7.22 -0.647,-10.857c-0.271,-4.047 -1.596,-7.766 -2.515,-11.684c-1.783,-7.61 -3.253,-14.699 -6.479,-21.883c-6.095,-13.568 -14.703,-25.755 -26.482,-34.986c-5.976,-4.684 -12.413,-7.713 -19.387,-10.583c-6.788,-2.793 -13.535,-3.916 -20.618,-5.563c-7.592,-1.765 -15.339,-2.908 -23.017,-4.224c-7.703,-1.32 -15.059,-0.785 -22.705,-0.861c-8.295,-0.083 -16.57,-0.971 -24.932,-0.861c-8.021,0.107 -15.577,2.315 -23.153,4.748c-14.491,4.653 -29.688,9.096 -42.623,17.376c-5.937,3.8 -10.394,9.276 -16.012,13.404c-5.874,4.316 -11.306,10.095 -15.939,15.644c-5.112,6.121 -7.128,14.633 -10.793,21.342c-3.171,5.802 -5.861,11.878 -7.801,18.196c-2.753,8.963 -4.252,18.622 -5.833,27.85c-1.751,10.219 -2.629,20.715 -2.66,31.09c-0.028,9.464 2.059,18.753 3.621,28.053c0.875,5.206 1.064,10.615 2.378,15.738c1.311,5.114 1.768,10.265 2.985,15.392c2.011,8.473 3.834,17.335 6.339,25.641c2.856,9.471 3.598,19.618 5.647,29.301c0.898,4.245 1.564,8.356 2.094,12.591c-0.884,4.794 -1.943,9.883 -4.33,14.026c-1.243,2.158 -3.071,3.862 -4.421,5.966c-1.421,2.214 -3.195,3.236 -4.974,5.042c-1.95,1.982 -2.339,3.726 -5.404,4.409c-3.101,0.692 -6.567,0.713 -9.74,0.876c-3.402,0.175 -6.654,0.178 -10.011,-0.432c-2.568,-0.467 -4.888,-0.748 -7.49,-0.293c-2.277,0.399 -4.99,0.582 -7.163,1.422c-2.507,0.971 -4.266,2.916 -6.131,4.761c-3.924,3.883 -6.947,7.135 -8.058,12.73c-0.969,4.88 -1.044,10.245 -0.06,15.128c0.945,4.686 1.318,11.277 5.696,14.113c-0.576,0.657 -1.134,1.336 -1.654,2.066c-2.727,3.833 -6.16,7.51 -7.989,11.877c-1.68,4.011 -1.867,8.928 -1.46,13.232c0.368,3.901 0.78,9.133 2.271,12.756c2.602,6.324 10.117,10.961 16.868,13.509c-0.07,0.052 -0.143,0.1 -0.211,0.153c-2.476,1.91 -4.319,4.563 -6.676,6.649c-4.809,4.257 -8.939,10.669 -11.172,16.678c-5.026,13.523 -4.026,26.878 4.642,38.664c7.75,10.537 21.584,17.339 34.418,18.318c3.532,0.269 7.262,0.399 10.784,-0.049c3.687,-0.468 7.466,-0.499 11.115,-1.109c7.057,-1.181 14.32,-4.821 20.145,-8.877c6.179,-4.303 11.904,-8.637 17.237,-13.981c5.522,-5.532 9.706,-11.606 14.315,-17.837c4.651,-6.288 7.11,-15.297 9.264,-22.725c0.393,-1.356 0.747,-2.72 1.083,-4.088c0.445,6.598 1.358,13.184 2.212,19.682c3.325,25.325 12.991,50.261 34.269,65.766c8.311,6.058 22.552,9.113 32.476,5.89c10.895,-3.539 19.234,-12.198 24.014,-22.362c5.398,-11.479 7.559,-24.311 5.962,-36.938c-0.829,-6.543 -2.821,-12.777 -4.55,-19.115c-1.826,-6.696 -3.187,-13.251 -5.502,-19.806c-1.965,-5.56 -4.018,-11.082 -5.093,-16.84c-0.585,-3.133 -2.393,-5.772 -3.503,-8.727c-1.182,-3.145 -2.04,-6.448 -2.615,-9.755c-1.072,-6.169 -1.063,-12.616 -0.56,-18.848c0.305,-3.79 0.999,-7.494 2.527,-10.998c1.248,-2.86 2.636,-6.526 5.209,-8.456c7.063,-5.297 13.321,0.405 15.807,7.262c2.143,5.909 2.046,12.551 3.493,18.666c1.405,5.934 0.934,12.064 1.888,18.08c1.055,6.652 1.719,13.337 2.797,20.01c0.982,6.091 1.389,12.384 2.788,18.381c0.614,2.629 0.155,5.207 0.765,7.77c0.659,2.772 1.803,5.307 2.386,8.163c1.242,6.086 3.411,12.066 6.15,17.638c2.826,5.752 7.471,11.108 11.506,16.071c7.306,8.986 16.743,14.174 28.578,14.026c11.191,-0.14 24.564,-5.062 31.409,-14.317c3.748,-5.066 6.053,-11.213 7.758,-17.231c1.111,-3.923 1.218,-7.736 1.745,-11.74c0.455,-3.459 1.106,-6.272 0.519,-9.78c-1.158,-6.923 -2.321,-14.077 -3.986,-20.906c-1.479,-6.064 -3.775,-11.74 -6.835,-17.215c-3.585,-6.412 -8.123,-12.031 -11.326,-18.66c-3.259,-6.746 -7.545,-12.764 -11.549,-19.061c-3.649,-5.736 -6.393,-11.748 -8.104,-18.273c2.405,-4.466 6.451,-7.787 11.989,-8.07c8.297,-0.424 13.177,4.74 16.54,11.685c1.486,3.071 1.656,6.484 2.913,9.608c1.181,2.937 1.718,5.685 2.641,8.71c1.985,6.503 4.612,12.709 7.021,19.051c4.603,12.116 10.452,24.921 22.244,31.679c11.647,6.675 25.963,4.2 36.64,-3.222c5.204,-3.618 9.416,-9.541 13.063,-14.668c3.976,-5.591 6.531,-13.329 8.182,-19.933c1.762,-7.044 1.888,-14.782 0.657,-21.909c-0.556,-3.212 -0.295,-6.488 -1.277,-9.644c-1.04,-3.345 -2.688,-6.586 -4.476,-9.582c-1.722,-2.887 -3.551,-5.733 -5.477,-8.521c1.65,-1.08 3.158,-2.495 4.671,-3.656c2.857,-2.191 5.017,-5.232 7.029,-8.185zm-31.709,-46.891c6.833,-1.89 14.285,-3.694 20.679,0.235c0.007,0.004 0.013,0.009 0.02,0.013c-1.753,5.799 -0.355,10.831 -5.454,15.555c-2.409,2.232 -5.891,5.029 -9.479,4.031c-1.966,-0.547 -4.124,-2.464 -5.967,-3.456c-3.913,-2.103 -7.939,-2.69 -12.287,-3.476c-4.755,-0.859 -7.268,-2.044 -7.803,-7.303c-0.077,-0.767 -0.088,-1.555 -0.083,-2.344c6.725,0.093 14.026,-1.499 20.374,-3.255zm-89.656,-225.763c0.452,-0.221 0.842,-0.323 1.094,-0.212c0.199,0.088 0.384,0.097 0.56,0.076c5.897,6.451 10.621,13.983 14.422,21.878c3.389,7.041 4.756,14.09 6.544,21.624c0.845,3.559 2.074,6.844 2.236,10.529c0.161,3.654 0.388,7.202 0.809,10.841c0.863,7.476 1.15,14.833 0.037,22.288c-0.022,0.148 -0.034,0.296 -0.054,0.445c-10.881,2.573 -24.868,3.447 -30.061,-8.588c-2.309,-5.351 -2.018,-10.186 -1.041,-14.979c1.071,-4.334 2.851,-8.539 3.201,-12.942c0.074,-0.932 0.043,-1.803 -0.074,-2.625c0.025,-0.448 0.044,-0.898 0.048,-1.353c0.036,-3.734 -1.131,-6.412 -4.141,-8.621c-2.334,-1.713 -5.15,-2.488 -7.065,-4.757c-1.986,-2.352 -2.55,-5.255 -2.519,-8.277c0.018,-1.792 0.318,-3.711 0.839,-5.629c1.611,-3 3.736,-5.861 5.084,-8.135c1.251,-2.113 2.696,-4.326 4.267,-6.321c1.953,-1.73 3.977,-3.414 5.814,-5.242zm-176.43,-3.312c0.145,-0.198 0.234,-0.392 0.289,-0.582c7.684,-5.682 16.364,-9.621 25.341,-12.907c14.755,-4.621 30.221,-6.673 45.019,-10.725c2.759,0.067 5.53,0.192 8.334,0.218c7.643,0.072 15.296,-0.132 22.937,0.028c7.316,0.154 14.946,1.865 22.088,3.425c2.003,0.438 4.007,0.845 6.009,1.251c-1.538,5.178 -1.675,11.592 -1.114,16.179c1.007,8.235 5.709,16.258 6.13,24.474c0.264,5.162 -3.113,9.938 -7.157,13.767c-2.24,1.635 -4.604,3.137 -6.758,4.6c-2.81,1.907 -5.687,3.794 -8.662,5.465c-5.574,2.462 -11.762,4.196 -17.175,4.173c-4.407,-0.018 -9.092,-0.702 -12.854,-3.162c-4.105,-2.683 -6.929,-6.815 -10.428,-10.158c-4.961,-4.74 -11.008,-8.455 -18.066,-8.779c-17.978,-0.823 -30.902,14.775 -46.372,20.906c-11.594,4.595 -23.558,-7.601 -21.819,-18.96c1.72,-11.228 7.688,-20.233 14.258,-29.213zm-45.071,141.671c-0.82,-4.717 -2.154,-9.352 -2.738,-14.108c-2.257,-18.406 -0.601,-36.899 3.178,-55.046c0.574,-2.754 1.142,-5.455 1.742,-8.134c3.528,1.214 7.812,0.751 11.213,2.531c6.26,3.275 13.345,8.702 11.511,16.755c-1.511,6.639 -6.3,12.882 -8.311,19.507c-1.858,6.12 -3.452,11.789 -2.325,18.207c1.214,6.908 4.976,12.062 8.148,18.093c3.703,7.043 6.551,15.104 5.925,23.193c-0.624,8.064 -3.892,16.164 -9.559,21.947c-0.536,0.547 -1.1,1.051 -1.685,1.528c-1.106,0.628 -2.266,1.202 -3.507,1.749c-1.178,0.519 -2.252,1.201 -3.302,1.918c-0.577,-2.606 -1.154,-5.212 -1.726,-7.819c-0.946,-4.318 -2.58,-8.468 -3.443,-12.801c-0.885,-4.437 -1.278,-8.644 -2.562,-13.007c-1.387,-4.707 -1.722,-9.692 -2.559,-14.513zm-35.302,137.658c0.15,-0.248 0.302,-0.495 0.455,-0.731c0.053,-0.004 0.103,-0.012 0.156,-0.017c2.688,-0.213 5.661,0.987 8.382,1.122c3.061,0.152 6.117,-0.12 9.156,-0.451c-0.038,0.159 -0.075,0.319 -0.118,0.474c-0.172,0.62 -0.336,1.244 -0.502,1.866c-1.094,3.428 -2.723,6.96 -5.435,9.277c-3.309,2.826 -10.715,6.55 -13.885,2.022c-2.556,-3.653 -0.32,-9.349 1.791,-13.562zm-13.528,7.324c2.496,-3.34 5.554,-5.72 9.193,-7.014c-2.203,3.695 -3.215,8.453 -2.49,12.24c1.274,6.653 6.639,8.221 12.615,7.218c6.478,-1.087 10.972,-5.775 14.004,-11.319c1.022,-1.869 2.921,-5.715 3.606,-9.093c3.288,-0.41 6.581,-1.115 9.185,-3.165c1.781,-1.402 2.611,-3.439 4.272,-4.938c1.458,-1.317 2.775,-2.307 3.862,-3.996c1.39,-2.158 2.831,-4.164 4.138,-6.254c-0.597,3.583 -1.073,7.193 -2.154,10.671c-1.537,4.952 -4.885,9.219 -8.391,12.961c-2.735,2.92 -6.434,4.607 -9.352,7.404c-3.576,3.428 -7.53,6.493 -11.856,8.936c-7.57,4.274 -15.821,6.51 -22.911,11.757c-0.803,0.594 -1.593,1.189 -2.369,1.792c-0.263,-3.446 -2.21,-7.055 -3.095,-10.323c-1.367,-5.034 -1.5,-12.538 1.743,-16.877zm57.773,22.974c-1.796,4.946 -4.235,9.147 -8.117,12.774c-4.079,3.809 -7.893,3.825 -13.086,3.773c-3.118,-0.031 -6.066,0.997 -8.812,2.445c-2.764,1.458 -7.37,6.493 -10.458,6.626c-6.323,0.274 -3.412,-8.118 -2.353,-11.682c0.296,-0.998 0.62,-1.984 0.949,-2.966c0.413,-0.852 0.778,-1.564 1.032,-2.05c1.006,-1.931 1.678,-4.501 2.766,-6.668c0.89,-0.324 1.775,-0.638 2.645,-0.94c7.174,-2.491 14.903,-7.185 20.764,-11.965c2.759,-2.25 5.839,-3.721 8.626,-5.852c1.33,-1.017 2.56,-2.177 3.725,-3.406c1.031,2.033 2.137,4.034 2.889,6.221c1.707,4.967 1.185,8.86 -0.57,13.69zm324.51,16.371c-0.23,7.734 -2.559,14.873 -5.67,21.923c-1.669,3.784 -4.717,8.206 -7.994,11.739c-1.698,-1.557 -3.4,-3.069 -4.856,-4.966c-3.213,-4.183 -3.599,-10.115 -2.349,-15.165c1.376,-5.561 5.918,-10.121 11.223,-12.093c2.097,-0.779 4.494,-1.168 6.69,-1.567c-0.502,0.091 1.374,-0.074 2.953,-0.404c-0.001,0.18 0.009,0.352 0.003,0.533zm-0.889,-10.906c0.267,2.07 0.536,4.027 0.711,6.008c-4.287,-0.542 -9.633,1.095 -12.94,2.61c-5.447,2.497 -9.843,6.966 -11.972,12.573c-2.244,5.911 -2.82,13.953 0.419,19.641c1.49,2.618 3.803,5.735 6.428,7.91c-5.011,3.686 -11.737,6.115 -17.921,5.655c-6.719,-0.5 -11.434,-3.995 -16.013,-8.645c-4.557,-4.626 -8.02,-12.06 -10.266,-18.093c-2.326,-6.249 -4.87,-12.434 -7.243,-18.671c-3.989,-10.49 -5.249,-24.422 -14.776,-31.854c-8.525,-6.65 -22.541,-7.028 -29.643,2.044c-0.153,0.194 -0.281,0.412 -0.426,0.614c-1.019,-6.327 -1.581,-12.71 -2.908,-19.008c-0.524,-2.491 -4.545,-2.513 -5.058,0c-2.535,12.436 -2.003,26.599 2.793,38.491c4.66,11.555 12.787,21.192 18.091,32.436c4.912,10.409 13.217,18.88 15.929,30.264c1.338,5.617 2.087,11.311 3.232,16.969c1.316,6.502 0.968,13.414 -0.596,19.955c-1.228,5.139 -3.156,10.811 -6.274,15.131c-3.301,4.572 -9.496,7.583 -14.786,9.169c-5.742,1.722 -12.386,2.011 -18.049,-0.163c-5.28,-2.028 -8.592,-5.263 -12.074,-9.664c-3.437,-4.344 -7.387,-8.792 -9.864,-13.762c-3.198,-6.414 -4.15,-12.966 -6.16,-19.715c-3.13,-10.51 -3.814,-22.178 -6.007,-33.132c-2.379,-11.891 -2.175,-24.32 -5.41,-35.994c-2.774,-10.01 -2.994,-21.698 -12.084,-28.53c-8.662,-6.512 -19.778,-1.942 -24.618,6.805c-5.904,10.666 -9.036,22.817 -7.934,35.061c0.516,5.739 1.595,11.525 3.697,16.91c0.932,2.387 2.275,4.529 2.77,7.028c0.74,3.734 1.727,6.873 3.108,10.444c4.536,11.725 7.244,24.162 10.304,36.352c3.022,12.036 2.386,25.024 -2.527,36.491c-4.208,9.818 -12.692,20.006 -24.289,20.072c-13.118,0.075 -24.088,-7.667 -31.94,-17.594c-8.933,-11.295 -15.029,-26.444 -17.084,-40.677c-2.064,-14.289 -4.246,-29.105 -2.614,-43.549c0.386,-3.42 0.034,-6.777 0.122,-10.199c0.083,-3.176 0.67,-6.228 0.558,-9.422c-0.051,-1.437 -0.055,-2.875 -0.051,-4.31c0.412,-1.677 0.815,-3.358 1.184,-5.047c1.044,-4.763 1.909,-9.587 3.368,-14.244c1.325,-4.228 3.104,-8.215 4.047,-12.558c0.607,-2.797 -3.018,-4.364 -4.601,-1.94c-8.287,12.682 -11.341,27.392 -15.101,41.884c-3.672,14.153 -5.905,28.755 -11.069,42.514c-1.145,3.049 -2.355,6.102 -3.608,9.109c-1.347,3.231 -3.483,5.68 -5.369,8.575c-4.044,6.21 -9.032,11.447 -14.426,16.532c-5.035,4.747 -11.015,9.193 -17.124,12.458c-3.1,1.657 -6.247,3.24 -9.694,4.033c-3.432,0.788 -7.257,0.706 -10.779,1.242c-12.908,1.964 -27.126,-2.627 -35.881,-12.55c-9.792,-11.098 -9.021,-26.15 -0.923,-37.885c3.248,-4.706 7.52,-9.442 12.425,-12.508c1.773,-1.108 3.648,-1.985 5.553,-2.792c-5.839,9.281 -12.306,24.3 -0.769,28.408c3.349,1.192 6.867,-0.225 9.972,-1.402c3.482,-1.321 5.736,-2.578 9.16,-0.565c2.331,1.37 4.234,3.345 6.35,5.003c5.454,4.272 11.099,6.06 17.62,2.779c5.821,-2.929 9.06,-8.886 11.978,-14.406c0.665,-1.257 1.273,-2.512 1.852,-3.767c4.402,-8.07 6.877,-17.346 5.825,-26.36c-0.056,-0.481 -0.135,-0.982 -0.212,-1.482c-0.04,-3.754 -0.624,-7.444 -2.414,-11.105c-2.103,-4.301 -5.752,-8.186 -10.138,-10.309c2.952,-2.971 5.873,-5.961 8.798,-8.94c0.424,2.624 1.874,6.105 3.54,8.167c4.354,5.387 13.061,1.925 17.189,-2.021c5.744,-5.49 7.521,-12.792 7.482,-20.422c-0.03,-5.92 -3.477,-13.961 -9.143,-17.127c1.42,-3.43 2.644,-6.937 3.577,-10.461c1.783,-6.732 5.671,-13.058 3.705,-20.172c-0.327,-1.182 -1.896,-1.056 -2.276,0c-2.423,6.746 -6.358,13.387 -9.468,19.819c-3.308,6.837 -6.266,13.539 -10.244,20.082c-1.851,3.046 -3.636,6.135 -5.65,9.078c-2.227,3.256 -5.224,5.258 -7.747,8.172c-4.627,5.343 -9.797,10.234 -15.085,14.929c-5.525,4.905 -12.324,9.012 -18.587,12.906c-2.729,1.696 -5.703,2.605 -8.398,4.467c-0.523,0.361 -1.056,0.689 -1.594,1.004c-0.976,0.234 -1.894,0.404 -2.681,0.492c-4.33,0.481 -8.719,-0.73 -12.645,-2.395c-3.3,-1.399 -6.249,-2.99 -8.792,-5.584c-2.378,-2.427 -2.352,-6.319 -3.204,-9.511c-1.001,-3.753 -1.488,-8.505 0.033,-12.167c1.539,-3.706 4.209,-7.334 6.551,-10.58c3.187,-4.419 7.875,-7.402 12.854,-9.689c-1.598,3.508 -2.651,7.602 -3.459,10.799c-0.927,3.666 -2.407,9.472 -0.165,12.871c1.86,2.82 5.396,3.474 8.424,2.421c6.829,-2.377 11.264,-8.636 18.945,-8.656c4.752,-0.012 8.668,-0.117 12.875,-2.724c3.931,-2.435 7.473,-6.371 9.871,-10.464c0.538,-0.619 1.034,-1.328 1.489,-2.27c3.258,-6.744 4.868,-12.183 3.598,-19.736c-0.743,-4.421 -2.436,-7.801 -5.006,-11.107c-0.11,-0.303 -0.211,-0.611 -0.312,-0.918c0.36,-0.472 0.72,-0.943 1.069,-1.414c5.356,-7.201 6.388,-15.409 8.423,-23.898c0.94,-3.925 1.156,-7.382 0.561,-11.393c-0.693,-4.674 -0.697,-9.412 -1.524,-14.062c-2.206,-12.414 -4.869,-24.703 -7.584,-36.977c3.976,-2.279 8.025,-4.738 11.224,-7.969c5.496,-5.551 8.831,-12.705 10.415,-20.31c1.132,-5.436 1.08,-11.024 0.033,-16.443c-0.125,-3.187 -0.519,-6.314 -1.629,-9.088c-2.174,-5.431 -6.206,-9.888 -9.102,-14.939c-1.045,-2.169 -1.936,-4.409 -2.507,-6.801c-1.686,-7.056 0.914,-14.141 3.703,-20.731c1.861,-3.666 3.96,-7.19 5.625,-11.007c1.713,-3.928 3.636,-8.752 1.841,-12.926c-1.929,-4.486 -5.413,-8.485 -9.425,-11.199c-5.491,-3.944 -12.601,-6.075 -18.89,-5.134c1.12,-4.519 2.435,-8.978 4.249,-13.443c1.572,-3.868 3.901,-7.531 5.716,-11.314c2.093,-4.363 4.642,-8.471 7.355,-12.474c2.732,-4.029 5.902,-7.857 9.394,-11.442c0.465,-0.4 0.949,-0.776 1.428,-1.16c-7.164,11.67 -10.499,26.636 -0.805,36.566c5.663,5.801 14.53,9.982 22.683,7.407c8.472,-2.677 16.932,-8.634 24.168,-13.668c8.143,-5.666 21.787,-10.541 30.805,-4.203c8.049,5.656 12.531,14.437 22.265,17.535c8.731,2.78 16.805,0.616 25.273,-1.958c9.033,-2.746 17.243,-7.941 23.503,-14.953c3.345,-3.746 5.351,-7.053 6.402,-12.014c0.012,-0.056 0.015,-0.112 0.026,-0.168c0.679,-1.757 1.219,-3.594 0.854,-5.474c-0.219,-1.128 -0.714,-2.15 -1.226,-3.172c-0.314,-1.416 -0.696,-2.84 -1.082,-4.299c-1.319,-4.973 -3.046,-9.889 -3.766,-14.999c-0.56,-3.983 -0.411,-10.491 1.199,-15.057c10.101,2.115 19.982,4.665 28.967,10.419c3.223,2.064 6.182,4.43 8.927,7.009c-9.651,6.373 -18.022,14.79 -19.619,26.932c-0.667,5.069 0.227,10.527 3.598,14.511c2.128,2.516 4.82,3.111 7.233,5.097c4.022,3.31 1.608,8.942 0.496,13.327c-1.465,5.775 -3.312,11.502 -2.156,17.505c1.087,5.639 2.887,11.026 6.906,15.276c4.311,4.558 10.98,6.69 17.145,6.966c3.529,0.158 6.565,-0.445 10.017,-0.975c1.4,-0.216 2.587,-0.317 3.691,-0.522c0.001,1.026 0.004,2.051 0.018,3.092c0.046,3.406 -0.861,6.73 -1.177,10.137c-13.352,-1.323 -22.608,8.252 -27.116,19.891c-2.125,3.687 -3.521,7.773 -3.878,12.106c-0.433,5.252 0,10.304 1.533,15.044c0.67,3.267 1.772,6.36 3.478,8.918c4.895,7.335 12.275,11.533 20.87,12.799c0.163,0.954 0.315,1.922 0.378,2.939c0.228,3.718 0.829,6.562 1.7,10.204c0.695,2.904 0.896,5.902 1.689,8.791c0.966,3.516 2.516,6.927 3.868,10.311c2.61,6.535 6.005,12.664 9.502,18.762c3.405,5.94 8.465,10.421 13.265,15.217c4.721,4.718 9.598,9.344 15.211,13.002c0.653,0.426 1.3,0.834 1.95,1.252c-0.397,0.192 -0.794,0.392 -1.19,0.605c-3.107,1.676 -6.95,3.295 -9.843,5.331c-3.153,2.22 -6.909,7.132 -7.263,11.095c-0.267,2.999 0.955,6.651 2.37,9.261c1.698,3.131 3.782,3.75 6.494,5.697c3.467,2.49 2.875,5.577 3.138,9.402c0.239,3.477 0.891,6.452 2.103,9.774c1.739,4.775 4.449,10.95 9.26,13.302c4.859,2.377 10.005,1.068 14.477,-1.32c6.114,-3.265 10.413,-7.672 15.09,-12.638c1.988,-2.111 4.615,-4.882 6.652,-7.815c0.569,1.048 1.113,2.107 1.589,3.197c1.367,3.115 1.195,5.877 1.617,9.149zm-365.217,72.364c0.634,-1.585 1.3,-3.138 1.968,-4.686c1.982,-3.122 4.194,-6.063 6.578,-8.85c0.026,-0.012 0.051,-0.022 0.075,-0.035c4.068,-1.016 7.869,-2.821 10.873,-5.529c0.161,-0.145 0.301,-0.295 0.433,-0.45c3.163,-1.892 6.368,-4.116 9.31,-6.332c5.351,-4.033 10.364,-7.924 15.167,-12.555c0.37,0.071 0.735,0.164 1.094,0.281c0.18,0.064 0.36,0.129 0.541,0.194c4.833,1.884 8.441,7.619 9.46,12.212c1.225,5.511 -0.146,11.375 -0.729,16.859c-0.583,5.488 -3.025,10.324 -5.438,15.191c-2.303,4.641 -5.092,10.051 -9.861,12.606c-6.521,3.493 -11.29,-2.075 -16.21,-5.65c-0.321,-0.234 -0.639,-0.454 -0.955,-0.666c-0.083,-0.061 -0.173,-0.113 -0.259,-0.171c-3.684,-2.416 -7.109,-3.348 -11.542,-1.714c-3.017,1.111 -8.07,4.45 -11.099,2.002c-3.48,-2.817 -0.7,-9.473 0.594,-12.707zm61.531,-55.886c4.482,-5.243 7.633,-12.117 10.869,-18.04c0.724,-1.325 1.415,-2.682 2.084,-4.054c3.041,3.061 5.877,5.992 6.268,10.87c0.366,4.559 -0.497,8.773 -2.69,12.657c-0.218,0.34 -0.434,0.683 -0.671,1c-0.617,0.83 -1.278,1.76 -1.982,2.665c-2.198,2.353 -5.29,4.455 -7.974,3.89c-0.546,-0.235 -1.107,-0.565 -1.691,-1.04c-0.616,-0.502 -1.153,-1.052 -1.623,-1.639c-1.166,-1.958 -1.602,-4.25 -2.59,-6.309zm216.407,-216.596c-0.432,5.5 -0.888,10.998 -1.787,16.428c-1.087,6.559 -0.107,13.478 -1.422,19.973c-1.502,7.42 -0.811,14.752 -1.951,22.177c-0.006,0.038 -0.006,0.074 -0.011,0.112c-2.655,-0.861 -5.328,-1.446 -7.875,-2.417c-4.166,-2.342 -7.527,-5.937 -9.394,-10.549c-2.226,-5.501 -2.553,-13.028 -1.643,-18.883c0.991,-6.369 2.694,-11.867 6.343,-16.913c0.232,-0.214 0.464,-0.43 0.704,-0.638c2.921,-2.524 5.865,-5.257 9.125,-7.298c0.351,-0.22 0.723,-0.459 1.108,-0.699c0.587,-0.207 1.188,-0.4 1.815,-0.568c1.439,-0.385 3.293,-0.434 4.988,-0.725zm46.18,148.757c0.635,-0.141 1.271,-0.249 1.901,-0.283c3.88,2.521 7.659,5.131 11.219,8.295c5.775,5.132 11.065,10.814 15.513,17.137c1.876,2.668 3.866,5.332 5.724,8.073c-0.107,0.952 -0.336,1.835 -0.65,2.672c-1.746,2.586 -4.127,5.095 -5.755,6.823c-3.786,4.02 -7.242,7.434 -11.888,10.485c-3.634,2.386 -8.207,4.787 -12.116,2.543c-1.078,-0.918 -1.967,-2.115 -2.964,-3.394c-0.991,-1.272 -1.89,-2.58 -2.698,-3.926c-1.408,-3.032 -2.332,-6.368 -2.701,-9.344c-0.426,-3.428 0.102,-7.207 -1.187,-10.465c-0.628,-1.586 -1.603,-2.552 -2.721,-3.313c-1.682,-2.706 -4.315,-4.556 -6.53,-6.849c-0.587,-0.607 -1.07,-1.218 -1.447,-1.831c-0.506,-4.628 2.937,-9.37 7.074,-11.516c3.115,-1.616 6.199,-3.319 9.226,-5.107zm36.114,13.311c-0.173,0.128 -1.052,0.749 -1.737,1.294c-0.478,0.115 -0.943,0.292 -1.383,0.528c-4.759,-5.84 -10.003,-11.277 -15.726,-16.073c-5.816,-4.874 -12.229,-8.463 -18.481,-12.678c-6.238,-4.205 -11.394,-9.87 -16.682,-15.163c-3.017,-3.02 -5.909,-6.489 -8.562,-10.238c1.308,0.72 2.647,1.401 4.033,2.038c5.602,2.576 11.473,4.573 17.599,5.296c-1.232,3.796 -0.216,9.198 2.096,11.373c2.602,2.449 6.771,3.154 10.121,3.793c4.547,0.867 8.461,2.181 12.415,4.547c3.089,1.848 5.172,3.3 8.992,2.848c3.762,-0.445 6.952,-2.494 9.726,-4.974c3.962,-3.543 7.473,-9.513 7.469,-15.23c2.381,3.07 3.958,6.769 4.354,10.615c0.763,7.427 -1.117,14.466 -4.838,20.861c-1.656,2.847 -3.478,5.809 -5.727,8.235c-1.142,1.232 -2.36,1.954 -3.669,2.928z"/>
  <path id="svg_36" d="m215.64,153.755c4.694,-1.538 8.746,-6.412 10.185,-11.037c2.317,-7.445 -3.672,-15.515 -10.955,-17.099c-5.275,-1.147 -10.576,1.124 -13.988,5.177c-2.952,3.507 -2.921,6.745 -1.738,10.737c1.086,3.661 1.268,7.752 4.868,9.824c3.273,1.882 7.903,3.619 11.628,2.398z"/>
  <path id="svg_37" d="m298.615,123.991c-3.003,-1.652 -6.81,-1.768 -10.106,-1.114c-5.067,1.005 -10.033,0.598 -15.136,1.865c-4.785,1.188 -9.267,1.016 -13.869,2.848c-3.276,1.305 -7.362,1.253 -9.708,4.022c-0.609,0.463 -1.168,0.997 -1.634,1.658c-1.896,2.691 -1.177,5.762 -1.695,8.8c-0.696,4.089 -0.771,6.642 0.386,10.723c1.146,4.043 2.522,7.834 5.243,11.11c4.774,5.746 12.064,8.446 19.125,10.203c8.334,2.074 16.642,-0.418 22.845,-6.321c6.246,-5.944 8.492,-14.081 8.921,-22.455c0.338,-6.59 2.658,-17.474 -4.372,-21.339zm-26.74,42.446c-4.641,-1.262 -8.718,-2.789 -11.906,-5.404c2.93,-1.273 6.355,-1.4 9.423,-0.777c1.485,0.302 3.105,0.686 4.41,1.481c1.163,0.708 1.811,1.916 3.023,2.506c1.028,0.501 2.497,0.347 3.065,-0.804c1.092,-2.21 -0.064,-4.254 -2.354,-5.845c1.946,-0.457 3.93,-1.105 5.644,-1.373c1.723,-0.269 3.808,-0.942 5.541,-0.592c1.358,0.275 2.512,0.926 3.785,1.363c-3.859,7.687 -12.141,11.754 -20.631,9.445zm23.297,-24.636c-0.504,-0.285 -1.07,-0.45 -1.645,-0.412c-7.793,0.524 -15.153,1.692 -22.836,2.88c-4.206,0.65 -8.366,1.87 -12.605,2.212c-1.965,0.158 -3.621,0.342 -5.208,0.866c-0.045,-0.417 -0.066,-0.829 -0.038,-1.229c0.117,-1.637 0.871,-3.224 0.973,-4.91c0.099,-1.629 -0.379,-2.665 0.753,-3.785c0.98,-0.968 5.122,-1.399 6.511,-1.714c3.812,-0.867 7.786,-1.153 11.675,-1.626c3.589,-0.436 7.215,-0.559 10.793,-1.09c3.099,-0.459 5.666,-1.924 8.659,-2.492c0.192,-0.037 0.375,-0.081 0.56,-0.124c0.477,0.063 0.923,0.18 1.319,0.386c2.423,1.268 1.231,8.087 1.089,11.038z"/>
  <path id="svg_38" d="m323.175,137.06c7.631,8.07 20.611,0.434 22.316,-8.962c0.803,-4.42 -2.352,-9.033 -4.742,-12.569c-3.281,-4.854 -8.157,-4.641 -12.986,-2.369c-4.192,1.971 -8.016,4.696 -9.153,9.458c-0.875,3.663 0.147,7.519 2.295,10.566c0.457,1.411 1.192,2.738 2.27,3.876z"/>
  <path id="svg_39" d="m267.765,420.326c-1.454,-7.741 -2.513,-14.821 -8.565,-20.39c-4.937,-4.543 -12.286,-6.791 -18.424,-3.055c-4.477,2.725 -6.391,8.136 -6.776,13.297c-0.698,2.217 -1.281,4.476 -1.714,6.64c-1.28,6.38 -0.537,13.632 1.797,19.699c1.131,2.939 2.742,5.065 4.637,7.513c2.467,3.187 3.995,6.227 4.935,9.917c0.146,2.513 -0.042,5.061 0.218,7.721c0.31,3.185 1.195,6.703 3.083,9.417c0.541,1.323 1.351,2.492 2.673,3.236c0.861,0.484 1.788,0.743 2.744,0.823c4.169,1.243 8.59,-0.647 11.222,-4.124c4.694,-6.201 4.033,-13.099 4.706,-20.317c0.284,-2.193 0.532,-4.303 0.804,-6.214c1.178,-8.249 0.187,-16.031 -1.34,-24.163zm-31.32,0.409c0.051,-1.995 0.186,-4.307 0.537,-6.648c1.192,-4.01 3.121,-7.779 5.12,-11.466c1.141,-1.067 2.608,-1.837 4.618,-2.117c8.435,-1.177 13.284,8.49 14.509,15.225c1.362,7.483 3.328,15.37 2.974,23c-0.377,8.144 -1.957,17.301 -4.617,25.043c-0.664,1.932 -1.098,3.815 -3.277,4.764c-0.696,0.738 -1.582,0.795 -2.657,0.172c-2.002,0.454 -2.848,-0.344 -2.538,-2.389c-0.814,-2.459 -0.898,-5.833 -1.449,-8.406c-1.504,-7.034 -2.904,-11.744 -7.423,-17.402c-2.624,-3.285 -4.601,-7.494 -5.643,-11.851c-0.305,-2.615 -0.221,-5.267 -0.154,-7.925z"/>
  <path id="svg_40" d="m265.5,353.943c1.246,-3.649 1.896,-7.428 1.471,-11.524c-0.55,-5.295 -3.91,-8.773 -9.003,-9.969c-4.785,-1.123 -7.72,0.812 -10.153,3.98c-2.646,2.049 -4.819,5.01 -6.722,7.45c-4.401,5.642 -8.124,11.672 -9.24,18.845c-0.667,4.285 -0.085,9.452 3.759,12.073c4.55,3.102 11.579,3.478 16.082,0.176c3.562,-2.611 6.852,-7.152 9.23,-11.249c0.152,-0.229 0.304,-0.458 0.447,-0.698c1.625,-2.74 3.118,-5.851 4.129,-9.084zm-21.436,-6.991c1.447,-1.821 2.698,-3.908 4.064,-5.691c0.167,-0.218 0.349,-0.421 0.529,-0.626c0.251,-0.264 0.504,-0.527 0.76,-0.781c3.172,-2.15 6.568,-4.313 10.324,-1.543c3.731,2.753 2.587,9.029 1.607,12.832c-1.685,6.536 -7.673,16.47 -13.61,19.86c-3.87,2.208 -9.822,1.082 -10.887,-3.586c-0.872,-3.824 0.362,-8.554 1.923,-12.093c0.062,-0.139 0.13,-0.281 0.194,-0.421c1.435,-2.809 3.138,-5.486 5.096,-7.951z"/>
  <path id="svg_41" d="m359.434,362.972c-1.905,-6.762 -4.572,-15.296 -10.183,-20.012c-4.087,-3.434 -8.519,-1.998 -11.577,1.346c-2.947,2.43 -4.851,6.954 -5.638,10.088c-1.736,6.915 -0.885,13.939 0.49,20.823c1.906,9.557 8.102,31.634 21.887,24.482c6.431,-3.336 8.002,-9.727 7.904,-16.498c-0.095,-6.581 -1.096,-13.887 -2.883,-20.229zm-9.924,32.97c-4.313,0.146 -7.506,-6.279 -8.83,-9.903c-1.6,-4.382 -3.019,-8.661 -3.86,-13.263c-0.294,-1.607 -0.548,-3.212 -0.732,-4.82c-0.006,-1.159 -0.003,-2.339 -0.004,-3.552c-0.004,-3.236 0.077,-6.49 0.658,-9.682c0.341,-1.27 0.813,-2.517 1.526,-3.809c0.329,-0.597 0.955,-1.765 1.677,-2.912c0.704,-0.542 1.428,-1.056 2.195,-1.511c0.177,0.013 0.34,0.045 0.512,0.065c2.133,1.263 3.711,2.736 5.225,5.092c1.784,2.776 3.593,5.747 4.792,8.827c2.149,5.524 3.833,11.461 4.087,17.395c0.011,0.26 0.118,0.455 0.267,0.595c0.034,0.337 0.063,0.676 0.079,1.022c0.136,2.865 0.373,6.582 -0.256,9.641c-1.019,3.837 -3.182,6.673 -7.336,6.815z"/>
  <path id="svg_42" d="m386.78,416.171c-0.249,-1.536 -0.785,-3.504 -1.59,-5.473c-0.256,-0.655 -0.539,-1.311 -0.875,-1.973c-0.551,-1.086 -1.149,-2 -1.776,-2.788c-1.51,-1.973 -3.395,-3.422 -5.65,-3.592c-0.066,-0.004 -0.139,0.003 -0.208,0.001c-4.227,-0.605 -8.945,1.925 -13.066,5.309c-4.071,2.114 -8.262,4.311 -11.165,7.484c-1.727,1.887 -2.956,3.878 -3.745,5.949c-0.693,0.917 -1.243,1.924 -1.47,3.16c-0.392,2.14 -0.155,4.453 0.245,6.579c0.458,2.441 1.573,4.736 2.977,6.915c2.369,5.471 5.938,11.397 10.821,14.061c5.638,3.077 12.752,0.491 16.872,-3.967c2.528,-2.735 4.223,-6.014 5.411,-9.504c3.301,-6.992 4.309,-15.431 3.219,-22.161zm-12.858,28.499c-2.225,2.137 -6.875,3.914 -9.943,2.518c-2.419,-1.101 -4.358,-4.343 -5.744,-6.42c-3.046,-4.563 -6.606,-11.265 -4.802,-16.766c2.12,-6.466 8.325,-8.517 13.137,-11.97c1.603,-0.784 3.085,-1.608 4.286,-2.564c0.412,-0.328 0.981,-0.872 1.588,-1.431c0.665,-0.214 1.361,-0.328 2.106,-0.28c4.019,0.262 5.352,4.037 6.242,7.38c2.264,8.51 -0.451,23.367 -6.87,29.533z"/>
  <path id="svg_43" d="m234.859,296.587c-4.055,-3.624 -8.601,-3.919 -13.523,-1.905c-3.702,1.515 -5.919,4.265 -7.24,7.612c-2.186,3.227 -3.631,6.899 -3.841,9.608c-0.364,4.693 0.601,9.617 5.446,11.448c4.687,1.772 10.016,2.099 14.351,-0.699c7.964,-5.145 12.721,-18.991 4.807,-26.064zm-2.809,3.192c2.122,1.775 2.991,4.061 2.974,6.449c-0.472,3.685 -2.833,7.631 -5.277,10.003c-1.539,1.494 -3.201,2.636 -5.028,3.245c-3.151,0.642 -7.935,-0.34 -9.369,-3.258c-1.059,-2.156 -0.387,-6.36 0.381,-8.514c0.633,-1.777 1.756,-3.556 3.14,-5.188c0.332,-0.156 0.606,-0.401 1.15,-0.824c1.416,-1.105 2.693,-2.271 4.09,-3.066c2.755,-0.809 5.873,-0.575 7.939,1.153z"/>
  <path id="svg_44" d="m294.963,307.188c-0.07,-2.042 -0.656,-4.126 -1.919,-6.188c-3.478,-5.679 -15.443,-9.857 -20.986,-4.723c-7.231,2.188 -13.043,7.694 -13.314,15.945c-0.156,4.737 0.615,10.396 5.035,13.143c4.39,2.727 11.428,1.778 15.984,0.145c5.539,-1.987 11.558,-6.769 14.041,-12.526c0.275,-0.496 0.515,-1.016 0.707,-1.565c0.481,-1.378 0.611,-2.821 0.452,-4.231zm-7.393,8.042c-1.467,1.001 -3.09,1.808 -4.611,2.677c-5.821,3.326 -12.292,5.889 -17.701,0.038c-4.169,-4.509 1.065,-12.39 5.564,-15.918c0.496,-0.332 1.006,-0.639 1.525,-0.928c0.272,-0.067 0.544,-0.194 0.799,-0.404c0.028,-0.024 0.063,-0.039 0.092,-0.062c0.803,-0.373 1.657,-0.665 2.606,-0.817c1.913,-0.308 4.129,-0.349 6.264,-0.094c3.683,1.005 7.082,3.276 7.936,6.003c1.212,3.868 -0.068,7.038 -2.474,9.505z"/>
  <path id="svg_45" d="m344.555,309.04c-0.102,-0.524 -0.249,-1.041 -0.43,-1.547c-0.875,-3.859 -2.344,-6.392 -6.478,-8.196c-2.577,-1.125 -4.577,-0.53 -6.389,0.752c-2.468,0.391 -4.786,1.053 -6.759,3.103c-2.516,2.615 -3.852,6.504 -4.102,10.065c-0.55,7.787 3.899,15.571 11.473,16.256c1.595,0.383 3.269,0.345 4.962,-0.276c7.898,-2.902 9.118,-12.953 7.723,-20.157zm-19.033,11.143c-1.448,-3.119 -1.54,-7.148 -0.449,-10.414c0.784,-2.342 2.124,-3.652 3.658,-4.663c0.113,0.012 0.229,0.019 0.348,0.001c2.941,-0.426 5.519,-2.517 8.502,-0.896c3.008,1.636 3.396,7.03 3.483,9.916c0.147,4.931 -2.219,11.143 -8.148,11.017c-1.855,-0.039 -3.379,-0.593 -4.612,-1.481c-1.078,-0.996 -2.023,-2.203 -2.782,-3.48z"/>
  <path id="svg_46" d="m411.712,286.714c-0.289,-2.759 -1.691,-5.184 -4.713,-6.863c-4.967,-2.761 -12.157,-4.389 -17.823,-3.889c-1.272,0.112 -2.976,0.647 -4.549,1.462c-3.153,0.353 -6.164,2.289 -8.535,4.234c-3.158,2.591 -7.962,9.33 -6.263,13.767c1.454,3.795 5.342,2.732 8.544,1.759c1.518,-0.217 3.05,-0.707 4.436,-1.005c0.567,-0.121 1.181,-0.274 1.813,-0.428c2.112,-0.286 4.176,-0.231 6.332,0.714c2.884,1.265 5.306,2.708 8.45,3.253c4.282,0.741 7.455,-0.278 9.595,-3.189c2.525,-2.466 3.826,-6.109 2.713,-9.815zm-34.568,1.994c1.274,-1.991 3.442,-4.463 5.729,-6.271c5.461,-1.488 11.288,-1.47 16.722,0.209c3.35,1.034 6.679,1.959 6.858,6.717c0.107,2.828 -1.867,5.557 -4.857,5.849c-3.5,0.341 -6.67,-2.209 -9.735,-3.38c-2.294,-0.877 -4.729,-1.095 -7.152,-0.734c-2.555,0.381 -6.094,2.406 -8.655,2.474c-1.25,-1.301 0.353,-3.712 1.09,-4.864z"/>
  <g id="svg_47"/>
  <g id="svg_48"/>
  <g id="svg_49"/>
  <g id="svg_50"/>
  <g id="svg_51"/>
  <g id="svg_52"/>
  <g id="svg_53"/>
  <g id="svg_54"/>
  <g id="svg_55"/>
  <g id="svg_56"/>
  <g id="svg_57"/>
  <g id="svg_58"/>
  <g id="svg_59"/>
  <g id="svg_60"/>
  <g id="svg_61"/>
 </g>
</svg>
